<?xml version="1.0" standalone="no"?>
<!DOCTYPE svg PUBLIC "-//W3C//DTD SVG 1.1//EN" "http://www.w3.org/Graphics/SVG/1.1/DTD/svg11.dtd" >
<!--
2013-9-30: Created.
-->
<svg>
<metadata>
Created by iconfont
</metadata>
<defs>

<font id="iconfont" horiz-adv-x="1024" >
  <font-face
    font-family="iconfont"
    font-weight="500"
    font-stretch="normal"
    units-per-em="1024"
    ascent="896"
    descent="-128"
  />
    <missing-glyph />
    
    <glyph glyph-name="PlayButton" unicode="&#58903;" d="M512-64.4c-60.5 0-119.2 11.9-174.5 35.2-53.4 22.7-101.4 55-142.5 96.2-41.2 41.2-73.5 89.1-96.1 142.5-23.4 55.3-35.2 114-35.2 174.5s11.9 119.2 35.2 174.5c22.6 53.4 54.9 101.3 96.1 142.5 41.2 41.2 89.1 73.5 142.5 96.1 55.3 23.4 114 35.2 174.5 35.2s119.2-11.9 174.5-35.2c53.4-22.6 101.3-54.9 142.5-96.1 41.2-41.2 73.5-89.1 96.1-142.5 23.4-55.3 35.2-114 35.2-174.5s-11.9-119.2-35.2-174.5C902.5 156.1 870.2 108.1 829 67c-41.2-41.2-89.1-73.5-142.5-96.1-55.3-23.4-114-35.3-174.5-35.3z m0 822.9c-206.5 0-374.5-168-374.5-374.5s168-374.5 374.5-374.5 374.5 168 374.5 374.5-168 374.5-374.5 374.5zM691 384L417 542.2v-316.4z"  horiz-adv-x="1024" />

    
    <glyph glyph-name="language1" unicode="&#58894;" d="M828.3 700.3c-84.5 84.5-196.8 131-316.3 131s-231.8-46.5-316.3-131-131-196.8-131-316.3 46.5-231.8 131-316.3 196.8-131 316.3-131 231.8 46.5 316.3 131 131 196.8 131 316.3-46.5 231.8-131 316.3z m-353.8 111C395 746.4 342.9 678 310.2 610.8c-60.1 23.1-100.6 50.4-115.6 61.4 70.6 77.7 169.3 129.5 279.9 139.1zM182.4 658.2c2.4-1.8 5.6-4.1 9.8-6.9 9.5-6.5 25.1-16.6 45.8-27.6 17.9-9.6 39.6-19.9 64.5-29.6-31.1-70.4-41.6-139.1-41.1-200.8H83.2c2.1 100.5 39.1 192.7 99.2 264.9z m-6.3-540.6c-56.4 71-90.8 160.2-92.9 257.2h178.7c1-22.1 3.3-43.2 6.5-63.1 6.7-41.6 18.5-83.8 34.6-124.7-25.1-9.7-46.9-20.1-65-29.8-20.7-11.1-36.3-21.1-45.8-27.6-5.7-3.9-9.7-6.9-12.1-8.7-1.6-1.2-2.9-2.3-4-3.3zM187.9 103.4c4.5 3.6 49 38.5 122 66.6 16.1-37.9 36-74.6 58.9-108.4 30.2-44.6 63.8-81.2 94.3-103.7-109.5 12.5-206.6 66.3-275.2 145.5zM494-40.1c-32.5 16.9-74.2 59.1-110 112-22.1 32.6-41.2 67.9-56.8 104.4 17.4 6.1 36.3 11.7 56.5 16.4 36.9 8.7 73.7 13.5 110.3 14.4v-247.2z m0 265.5c-4.1-0.1-8.2-0.2-12.3-0.4-61.7-2.8-116.3-15.7-161.5-31.6-15.7 39.8-27.1 80.8-33.7 121.3-3.1 18.9-5.3 39-6.2 60.1H494v-149.4z m0 167.8H279.8c-0.5 59.7 9.8 126.2 40.1 194.4 45.3-15.9 100-28.9 161.8-31.7 4.1-0.2 8.2-0.3 12.3-0.4v-162.3z m0 180.5c-36.7 1-73.5 5.7-110.3 14.4-20 4.7-38.6 10.2-55.9 16.2 32.8 66.7 85.3 134.7 166.3 199v-229.6z m345.7 86.8c61.3-72.5 99-165.6 101.1-267.2H745.1c0.5 61.1-9.8 129.1-40.1 198.7 45.5 16.9 90.4 39.7 134.7 68.5z m-12.3 13.9c-42.9-27.6-86.3-49.6-130-65.9-32.9 68.4-85.6 138-166.9 204 117.1-5 222.3-57.2 296.9-138.1z m-315 128.9c81.8-65 134.6-133.6 167.3-201.1-55.3-18.6-111.1-28.2-167.3-28.7V803.3z m0-247.9c58.9 0.6 117.4 10.7 175 30.2 29.6-67.5 39.7-133.3 39.2-192.5H512.4V555.4z m0-180.6h213.7c-0.9-21.1-3.2-41.2-6.2-60.1-6.4-39.8-17.6-80.1-32.9-119.3-57.5 19.4-115.8 29.5-174.6 30.1V374.8z m0-167.5c56.4-0.5 112.4-10.2 167.8-28.9-15.8-37.3-35.2-73.3-57.7-106.6-35.8-52.9-77.5-95.1-110-112V207.3zM541-43.9c31.1 22.3 65.7 59.7 96.7 105.5 23.4 34.5 43.5 72 59.9 110.7 46.2-17.2 91.9-40.8 137.1-70.6-72.8-83-176.9-137.8-293.7-145.6z m305.6 159.8c-46.6 31-94.1 55.4-142.2 73.3 15.6 40.3 27.1 81.7 33.7 122.5 3.2 19.8 5.5 41 6.5 63.1h196.2c-2.1-97.8-37-187.6-94.2-258.9z"  horiz-adv-x="1024" />

    
    <glyph glyph-name="logo" unicode="&#59498;" d="M353.6 339.20000000000005c94.18666667 0 141.33333333 24.64 141.33333333 73.81333333v67.52c0 49.17333333-47.14666667 73.81333333-141.33333333 73.81333334S212.26666667 529.70666667 212.26666667 480.53333333v-67.52c0.10666667-49.17333333 47.14666667-73.81333333 141.33333333-73.81333333z m-104.21333333 141.33333333c0 11.62666667 11.94666667 20.90666667 35.94666666 27.62666667 19.94666667 5.54666667 42.77333333 8.42666667 68.37333334 8.42666667 25.6 0 48.32-2.77333333 68.37333333-8.42666667 23.89333333-6.72 35.94666667-16 35.94666667-27.62666667v-67.52c0-11.62666667-11.94666667-20.90666667-35.94666667-27.62666666-19.94666667-5.54666667-42.77333333-8.42666667-68.37333333-8.42666667-25.6 0-48.32 2.77333333-68.37333334 8.42666667-23.89333333 6.72-35.94666667 16-35.94666666 27.62666666v67.52zM773.33333333 411.62666667V553.28h-37.12v-141.97333333c0-10.02666667-5.01333333-17.70666667-15.04-23.14666667-17.06666667-8.85333333-40.96-13.33333333-71.68-13.33333333-21.44 0-40.42666667 2.77333333-57.06666666 8.42666666-19.84 6.82666667-29.76 16.10666667-29.76 28.05333334V553.28h-37.12v-141.65333333c0-27.30666667 14.72-47.25333333 44.05333333-59.84 21.65333333-9.28 48.32-13.97333333 79.78666667-13.97333334 31.68 0 58.24 4.58666667 79.78666666 13.65333334 29.54666667 12.58666667 44.16 32.64 44.16 60.16zM838.08 480.85333333c0 9.6 5.12 17.17333333 15.36 22.72 17.92 9.81333333 43.94666667 14.72 77.97333333 14.72 14.72 0 30.50666667-1.70666667 47.57333334-5.22666666l11.2 36.05333333c-15.36 3.52-34.98666667 5.22666667-58.77333334 5.22666667-25.70666667 0-48.32-2.56-67.84-7.68l1.06666667 0.32c-42.88-12.16-64.32-34.13333333-64.32-66.13333334V339.20000000000005h37.76V480.85333333zM266.98666667 293.54666667000004c-20.8 0-40.21333333-1.92-58.24-5.54666667l7.25333333-35.62666667c19.52 3.73333333 36.48 5.54666667 50.88 5.54666667 20.69333333 0 40.53333333-2.88 59.41333333-8.74666667 22.82666667-6.93333333 34.24-16.21333333 34.24-27.52v-67.30666666c0-11.62666667-10.77333333-20.69333333-32.32-27.2-17.81333333-5.33333333-38.18666667-8-61.22666666-8s-43.52 2.66666667-61.54666667 8c-21.54666667 6.72-32.32 15.78666667-32.32 27.2V340.15999999999997c8.32-0.42666667 16.96-0.74666667 26.02666667-0.85333333v44.05333333c-24.21333333 1.92-46.93333333 5.33333333-68.16 10.24-34.88 8.21333333-52.26666667 18.56-52.26666667 31.14666667V539.6266666700001H199.46666667v43.30666666H78.82666667v103.25333334H34.34666667V424.53333333c0-44.37333333 35.2-71.46666667 105.49333333-81.17333333v-189.33333333c0-48 42.34666667-72 127.14666667-72 84.58666667 0 126.82666667 24 126.82666666 72v67.52c0 47.89333333-42.24 72-126.82666666 72zM566.18666667 298.45333332999996c-94.18666667 0-141.33333333-24.64-141.33333334-73.81333333v-67.52c0-49.17333333 47.14666667-73.81333333 141.33333334-73.81333333s141.33333333 24.64 141.33333333 73.81333333v67.52c-0.10666667 49.17333333-47.14666667 73.81333333-141.33333333 73.81333333z m104.21333333-141.33333333c0-11.62666667-11.94666667-20.90666667-35.94666667-27.62666667-19.94666667-5.54666667-42.77333333-8.42666667-68.37333333-8.42666666-25.6 0-48.32 2.77333333-68.37333333 8.42666666-23.89333333 6.72-35.94666667 16-35.94666667 27.62666667v67.52c0 11.62666667 11.94666667 20.90666667 35.94666667 27.62666667 19.94666667 5.54666667 42.77333333 8.42666667 68.37333333 8.42666666 25.6 0 48.32-2.77333333 68.37333333-8.42666666 23.89333333-6.72 35.94666667-16 35.94666667-27.62666667v-67.52zM951.25333333 277.01333333c0-12.16-13.65333333-24.96-40.85333333-38.50666666-22.61333333-9.81333333-39.57333333-16.74666667-50.98666667-21.01333334-25.17333333 9.6-42.24 16.53333333-51.30666666 21.01333334-26.98666667 13.54666667-40.53333333 26.34666667-40.53333334 38.50666666v20.26666667h-37.12v-20.26666667c0-18.45333333 8.85333333-34.98666667 26.56-49.70666666 10.24-8.64 27.30666667-18.66666667 51.09333334-30.08-51.73333333-27.73333333-77.65333333-59.62666667-77.65333334-95.46666667V83.20000000000005h37.12v18.56c0 14.72 11.94666667 30.18666667 35.94666667 46.50666667 16.21333333 11.2 34.98666667 20.90666667 56.10666667 29.01333333 20.90666667-8.21333333 39.46666667-17.81333333 55.78666666-29.01333333 23.89333333-16.32 35.84-31.78666667 35.84-46.50666667V83.20000000000005h37.12v18.56c0 35.94666667-25.92 67.73333333-77.65333333 95.46666667 23.78666667 11.41333333 40.85333333 21.44 51.09333333 30.08 17.70666667 14.72 26.56 31.25333333 26.56 49.70666666v20.26666667h-37.12v-20.26666667z"  horiz-adv-x="1024" />

    
    <glyph glyph-name="email" unicode="&#58902;" d="M841.4 747.3H182.6C117.2 747.3 64 694 64 628.6v-489.3c0-65.4 53.2-118.6 118.6-118.6h658.9c65.4 0 118.6 53.2 118.6 118.6V628.6c0 65.4-53.2 118.7-118.7 118.7z m-658.8-72.5h658.9c25.4 0 46.1-20.7 46.1-46.2v-79.7L513.1 317 136.4 549v79.6c0 25.5 20.7 46.2 46.2 46.2z m658.8-581.6H182.6c-25.4 0-46.1 20.7-46.1 46.1V463.8l376.8-232.1 374.3 231.9v-324.3c0-25.4-20.7-46.1-46.2-46.1z"  horiz-adv-x="1024" />

    
    <glyph glyph-name="fackbook" unicode="&#58893;" d="M800.5 785.5h-577c-62.2 0-113-50.9-113-113v-577c0-62.2 50.9-113 113-113h205.9V333.70000000000005h-87.8V465.4h87.8v65.9c0 84.7 68.9 153.7 153.7 153.7h109.8v-131.7H583.1c-11.9 0-22-10.1-22-21.9v-65.9h131.7l-22-131.7H561.1v-351.2h239.4c62.2 0 113 50.9 113 113v577c0 62.1-50.8 112.9-113 112.9z"  horiz-adv-x="1024" />

    
    <glyph glyph-name="Instagram" unicode="&#58895;" d="M695.4 787.5H328.6c-121 0-220.1-99-220.1-220.1v-366.8c0-121 99-220.1 220.1-220.1h366.8c121 0 220.1 99 220.1 220.1V567.4c0 121-99.1 220.1-220.1 220.1z m146.7-586.9c0-80.7-66-146.7-146.7-146.7H328.6c-80.7 0-146.7 66-146.7 146.7V567.4c0 80.7 66 146.7 146.7 146.7h366.8c80.7 0 146.7-66 146.7-146.7v-366.8z m0 0M713.7 585.7m-36.7 0a36.7 36.7 0 1 1 73.4 0 36.7 36.7 0 1 1-73.4 0ZM696.2 385.4c0-101.4-82.2-183.6-183.6-183.6S329 284 329 385.4 411.2 569 512.6 569s183.6-82.2 183.6-183.6zM512.6 494c-60 0-108.7-48.6-108.7-108.7s48.6-108.7 108.7-108.7c60 0 108.7 48.6 108.7 108.7S572.6 494 512.6 494z"  horiz-adv-x="1024" />

    
    <glyph glyph-name="Twitter" unicode="&#58897;" d="M926.9 641.4c-30.5-13.5-63.4-22.7-97.8-26.8 35.1 21.1 62.1 54.4 74.9 94.2-32.9-19.5-69.3-33.7-108.1-41.3-31.1 33.1-75.3 53.8-124.3 53.8-94 0-170.3-76.2-170.3-170.2 0-13.4 1.5-26.4 4.4-38.8-141.5 7.1-267 74.9-350.9 177.9-14.7-25.2-23.1-54.4-23.1-85.6 0-59.1 30.1-111.2 75.8-141.7-27.9 0.9-54.1 8.5-77.1 21.3v-2.2c0-82.5 58.7-151.3 136.6-166.9-14.3-3.9-29.3-6-44.9-6-11 0-21.6 1.1-32 3.1 21.7-67.6 84.5-116.9 159-118.2-58.3-45.7-131.7-72.9-211.5-72.9-13.7 0-27.3 0.8-40.6 2.4 75.3-48.3 164.8-76.5 261-76.5 313.2 0 484.4 259.4 484.4 484.4 0 7.4-0.2 14.7-0.5 22 33.3 23.9 62.2 53.8 85 88z m0 0"  horiz-adv-x="1024" />

    
    <glyph glyph-name="youtube" unicode="&#58898;" d="M920.1 589.7c-10 36-38.2 64.1-74.1 74.1-66.4 17.8-333.6 17.8-333.6 17.8s-266.5 0.4-333.6-17.8c-36-10-64.1-38.2-74.1-74.1-12.6-68-18.8-137-18.5-206.1-0.2-68.9 6-137.6 18.5-205.3 10-36 38.2-64.1 74.1-74.1 66.3-17.8 333.6-17.8 333.6-17.8s266.5 0 333.6 17.8c36 10 64.1 38.2 74.1 74.1 12.3 67.7 18.2 136.5 17.8 205.3 0.5 69.1-5.5 138.1-17.8 206.1z m-493-333.6V511.5l222.4-127.9-222.4-127.5z m0 0"  horiz-adv-x="1024" />

    
    <glyph glyph-name="wechat" unicode="&#58900;" d="M669 526.9c10.3 0 20.4-0.5 30.4-1.8C672.6 651.8 536.7 746 382.3 746 209.1 746 67.7 628.4 67.7 478.8c0-86.3 47.3-157.5 125.9-212.6l-31.2-94.7 109.9 55.1c39.4-7.8 70.8-15.7 110.2-15.7 10 0 19.5 0.5 29.6 1.3-6.5 20.8-10 43-10 65.9-0.3 137.2 117.7 248.8 266.9 248.8z m-345 46.2c0-24.3-19.7-44-44-44s-44 19.7-44 44 19.7 44 44 44 44-19.7 44-44z m216.1 0c0-24.3-19.7-44-44-44s-44 19.7-44 44 19.7 44 44 44 44-19.7 44-44zM956.3 281.70000000000005c0 125.9-125.9 228.3-267.2 228.3-149.8 0-267.2-102.4-267.2-228.3s117.6-228.3 267.2-228.3c31.2 0 62.8 8.2 94.7 16L870 22l-23.9 78.5c63.3 47.5 110.2 110.4 110.2 181.2z m-317.9 71c0-17.6-14.3-31.9-31.9-31.9s-31.9 14.3-31.9 31.9 14.3 31.9 31.9 31.9 31.9-14.3 31.9-31.9z m173 0c0-17.6-14.3-31.9-31.9-31.9s-31.9 14.3-31.9 31.9 14.3 31.9 31.9 31.9 31.9-14.3 31.9-31.9z"  horiz-adv-x="1024" />

    
    <glyph glyph-name="triangle" unicode="&#59198;" d="M512-128L0 896h1024z"  horiz-adv-x="1024" />

    
    <glyph glyph-name="Triangle" unicode="&#59211;" d="M616.277333-52.224l597.333334 853.333333h-1194.666667z"  horiz-adv-x="1365" />

    
    <glyph glyph-name="Videoandaudioediting" unicode="&#58892;" d="M911.9 106.9h-79.7V596.1c0 60-48.8 108.8-108.8 108.8H235.6V798.1c0 12.1-9.8 21.9-21.9 21.9-12.1 0-21.9-9.8-21.9-21.9v-93.2h-79.7c-12.1 0-21.9-9.8-21.9-21.9 0-12.1 9.8-21.9 21.9-21.9h79.7v-489.2c0-60 48.8-108.8 108.8-108.8h487.8v-93.2c0-12.1 9.8-21.9 21.9-21.9s21.9 9.8 21.9 21.9v93.2h79.7c12.1 0 21.9 9.8 21.9 21.9s-9.8 21.9-21.9 21.9z m-611.3 0c-35.8 0-65 29.1-65 65V661.1h487.8c35.8 0 65-29.1 65-65v-489.2H300.6zM627.7 449.9l-142.9 95.8c-20.7 13.9-47.1 15.2-69.1 3.5-22-11.7-35.6-34.5-35.6-59.4v-191.6c0-24.9 13.7-47.7 35.6-59.4 9.9-5.3 20.8-7.9 31.7-7.9 13.1 0 26.1 3.8 37.4 11.4l143 95.8c18.7 12.6 29.8 33.6 29.8 56.1-0.1 22.5-11.3 43.3-29.9 55.7z m-24.4-75.4l-142.9-95.8c-7.3-4.9-16.3-5.3-24-1.2-7.8 4.1-12.4 11.9-12.4 20.7V489.8c0 8.8 4.6 16.6 12.4 20.7 3.5 1.9 7.3 2.8 11.1 2.8 4.5 0 9-1.3 13-4l142.9-95.8c6.6-4.4 10.3-11.4 10.4-19.3-0.1-8.1-3.9-15.2-10.5-19.7z"  horiz-adv-x="1024" />

    
    <glyph glyph-name="Toolswitching" unicode="&#58890;" d="M938.1 235.4H693.8c-5.6 0-11 2.2-15 6.2L557.1 363.8c-8.2 8.3-8.2 21.7 0 29.9l121.7 122.2c4 4 9.4 6.2 15 6.2h244.3c11.7 0 21.2-9.5 21.2-21.2v-244.3c0-11.7-9.5-21.2-21.2-21.2z m-235.5 42.4h214.3V479.7H702.6L602 378.7l100.6-100.9zM512 426.8c-5.4 0-10.8 2.1-15 6.2L374.9 554.8c-4 4-6.2 9.4-6.2 15V814.1c0 11.7 9.5 21.2 21.2 21.2h244.3c11.7 0 21.2-9.5 21.2-21.2v-244.3c0-5.6-2.2-11-6.2-15L527 433c-4.2-4.1-9.6-6.2-15-6.2zM411 578.6L512 478l101 100.6V792.9H411v-214.3z m223.2-8.8zM330.2 235.4H85.9c-11.7 0-21.2 9.5-21.2 21.2V500.9c0 11.7 9.5 21.2 21.2 21.2h244.3c5.6 0 11-2.2 15-6.2l121.7-122.2c8.2-8.3 8.2-21.7 0-29.9L345.2 241.6c-4-4-9.4-6.2-15-6.2z m-223.1 42.4h214.3l100.6 101-100.6 101H107.1v-202zM634.2-67.3H389.8c-11.7 0-21.2 9.5-21.2 21.2V198.2c0 5.6 2.2 11 6.2 15L497 335c8.3 8.2 21.7 8.2 29.9 0l122.2-121.7c4-4 6.2-9.4 6.2-15V-46c0.1-11.8-9.4-21.3-21.1-21.3zM411-24.9h202V189.4L512 290 411 189.4v-214.3z"  horiz-adv-x="1024" />

    
    <glyph glyph-name="Parametercontrol" unicode="&#58889;" d="M538.7 741.3V806.6c0 12.1-9.8 21.9-21.9 21.9s-21.9-9.8-21.9-21.9v-65.3c-56.4-10.3-99.2-59.8-99.2-119.1s42.8-108.8 99.2-119.1v-542.6c0-12.1 9.8-21.9 21.9-21.9s21.9 9.8 21.9 21.9V503c56.4 10.3 99.2 59.8 99.2 119.1S595.1 731 538.7 741.3z m-21.9-196.4c-42.6 0-77.3 34.7-77.3 77.3s34.7 77.3 77.3 77.3 77.3-34.7 77.3-77.3-34.7-77.3-77.3-77.3zM251.7 284.1V806.6c0 12.1-9.8 21.9-21.9 21.9s-21.9-9.8-21.9-21.9v-522.4c-56.4-10.3-99.2-59.8-99.2-119.1s42.8-108.8 99.2-119.1v-85.4c0-12.1 9.8-21.9 21.9-21.9s21.9 9.8 21.9 21.9V46c56.4 10.3 99.2 59.8 99.2 119.1s-42.9 108.7-99.2 119z m-22-196.4c-42.6 0-77.3 34.7-77.3 77.3s34.7 77.3 77.3 77.3S307 207.6 307 165s-34.7-77.3-77.3-77.3zM916.4 165c0 59.3-42.8 108.8-99.2 119.1V806.6c0 12.1-9.8 21.9-21.9 21.9s-21.9-9.8-21.9-21.9v-522.4c-56.4-10.3-99.2-59.8-99.2-119.1S717 56.3 773.4 46v-85.4c0-12.1 9.8-21.9 21.9-21.9s21.9 9.8 21.9 21.9V46c56.4 10.2 99.2 59.7 99.2 119z m-121.1-77.3c-42.6 0-77.3 34.7-77.3 77.3s34.7 77.3 77.3 77.3 77.3-34.7 77.3-77.3-34.7-77.3-77.3-77.3z"  horiz-adv-x="1024" />

    
    <glyph glyph-name="Imagecontrol" unicode="&#58888;" d="M927-0.5H97c-12.1 0-21.9 9.8-21.9 21.9V746.6c0 12.1 9.8 21.9 21.9 21.9h830c12.1 0 21.9-9.8 21.9-21.9v-725.2c0-12.1-9.8-21.9-21.9-21.9z m-808.1 43.8H905V724.7H118.9v-681.4zM842.7 82.8H181.3c-12.1 0-21.9 9.8-21.9 21.9V663.2c0 12.1 9.8 21.9 21.9 21.9h661.4c12.1 0 21.9-9.8 21.9-21.9v-558.5c0-12.1-9.8-21.9-21.9-21.9z m-639.5 43.9h617.6V641.3H203.2v-514.6z"  horiz-adv-x="1024" />

    
    <glyph glyph-name="Brushcontrol" unicode="&#58883;" d="M225.8 200.3c6.7 2.2 13.1 6 18.4 11.3l502.2 502.2c18.2 18.2 18.2 47.8 0 66l-22 22c-8.8 8.8-20.5 13.7-33 13.7s-24.2-4.9-33-13.7L528.2 671.7c-8.6-8.6-8.6-22.4 0-31 8.6-8.6 22.4-8.6 31 0l130.2 130.2c0.6 0.6 1.2 0.8 2 0.8s1.5-0.3 2-0.8l22-22c1.1-1.1 1.1-2.9 0-4L283.9 313.3l-26.6 25.5 180.3 180.3c8.6 8.6 8.6 22.4 0 31-8.6 8.6-22.4 8.6-31 0L156.2 299.7c-5.4-5.4-9.1-11.7-11.3-18.5-2.7-0.5-5.3-1.4-7.8-2.9L94 252.1c-11.8-7.2-19.4-19.1-21-32.9-1.5-13.7 3.3-27.1 13.1-36.7l43.1-41.9c8.4-8.1 19.3-12.5 30.7-12.5 2.1 0 4.2 0.1 6.3 0.5 13.7 1.9 25.4 9.9 32.2 21.9l25 43.8c1.2 2 1.9 4 2.4 6z m-38.6 68.4l39.1 39.1 26.6-25.5-39.7-39.7c-1.1-1.1-2.9-1.1-4 0l-22 22c-1.1 1.2-1.1 3 0 4.1z m-26.7-96.4c-0.1-0.1-0.1-0.2-0.3-0.2-0.2 0-0.2 0-0.3 0.1L116.7 214c-0.1 0.1-0.1 0.1-0.1 0.3 0 0.2 0.1 0.2 0.2 0.3l28.6 17.4 31.6-30.7-16.5-29zM459.595318 592.752741a21.6 21.6 0 1 1 42.642719 6.916543 21.6 21.6 0 1 1-42.642719-6.916543ZM937.6 604.1l-22 22c-8.8 8.8-20.5 13.7-33 13.7s-24.2-4.9-33-13.7L719.4 496c-8.6-8.6-8.6-22.4 0-31 8.6-8.6 22.4-8.6 31 0l130.2 130.2c0.6 0.6 1.2 0.8 2 0.8s1.5-0.3 2-0.8l22-22c1.1-1.1 1.1-2.9 0-4L475.1 137.6 448.5 163l180.3 180.3c8.6 8.6 8.6 22.4 0 31-8.6 8.6-22.4 8.6-31 0L347.4 124c-5.3-5.3-9.1-11.6-11.4-18.5-1.7-0.3-3.5-0.8-5.1-1.5l-85.2-37.2c-0.9-0.4-1.8-0.9-2.6-1.4-11.8-7.2-19.4-19.1-21-32.9-1.5-13.7 3.3-27.1 13.1-36.7 2.2-2.2 4.9-3.8 7.8-4.9l81.5-29.6c7.7-5.8 17-9 26.6-9 2.1 0 4.2 0.1 6.3 0.5 13.7 1.9 25.4 9.9 32.2 21.9l25 43.8c1.1 1.9 1.8 3.9 2.3 5.9 6.7 2.2 13.1 6 18.4 11.3l502.2 502.2c18.3 18.4 18.3 48 0.1 66.2z m-586-607.6c-0.1-0.1-0.1-0.2-0.3-0.2-0.2 0-0.2 0-0.3 0.1-2.2 2.2-4.9 3.8-7.8 4.9l-75.3 27.3 67 29.3 33.3-32.3-16.6-29.1z m52.8 70.4c-1.1-1.1-2.9-1.1-4 0l-22 22c-0.6 0.6-0.8 1.2-0.8 2s0.3 1.5 0.8 2l39.1 39.1 26.6-25.5-39.7-39.6zM672.1 420.5m-21.6 0a21.6 21.6 0 1 1 43.2 0 21.6 21.6 0 1 1-43.2 0Z"  horiz-adv-x="1024" />

    
    <glyph glyph-name="arrowRight" unicode="&#58973;" d="M825.6 352H128.7168a32 32 0 1 0 0 64h696.8832a32 32 0 0 0 0-64zM597.4528 97.27999999999997a32 32 0 0 0-22.6304 54.6304L806.656 384l-231.8336 231.8336a32 32 0 1 0 45.2608 45.2608L897.1264 384l-277.0432-277.0944a31.8976 31.8976 0 0 0-22.6304-9.6256z"  horiz-adv-x="1024" />

    
    <glyph glyph-name="dian" unicode="&#58887;" d="M512 384m-128 0a4 4 0 1 1 256 0 4 4 0 1 1-256 0Z"  horiz-adv-x="1024" />

    
    <glyph glyph-name="bofang" unicode="&#58904;" d="M893.035 432.178321C839.00765 466.300859 210.584253 867.240672 179.305261 887.145486 139.495634 912.737389 99.686007 878.614852 99.686007 838.805225v-909.934329c0-45.496716 42.653172-68.245075 76.775709-48.340262 45.496716 28.435448 676.763657 429.375262 716.573284 454.967165 34.122537 22.748358 34.122537 76.775709 0 96.680522z"  horiz-adv-x="1024" />

    
    <glyph glyph-name="bars" unicode="&#58927;" d="M128 672v-64h768V672z m0-256v-64h768v64z m0-256v-64h768v64z"  horiz-adv-x="1024" />

    
    <glyph glyph-name="close-circle" unicode="&#58968;" d="M509.866667 864C245.333333 864 32 648.533333 32 384s213.333333-480 477.866667-480S987.733333 119.46666700000003 987.733333 384 774.4 864 509.866667 864z m0-896C281.6-32 96 153.60000000000002 96 384S281.6 800 509.866667 800 923.733333 614.4 923.733333 384s-185.6-416-413.866666-416zM693.333333 565.333333c-12.8 12.8-32 12.8-44.8 0L512 428.8l-136.533333 136.533333c-12.8 12.8-32 12.8-44.8 0-12.8-12.8-12.8-32 0-44.8l136.533333-136.533333-136.533333-136.533333c-12.8-12.8-12.8-32 0-44.8 6.4-6.4 14.933333-8.533333 23.466666-8.533334s17.066667 2.133333 23.466667 8.533334l136.533333 136.533333 136.533334-136.533333c6.4-6.4 14.933333-8.533333 23.466666-8.533334s17.066667 2.133333 23.466667 8.533334c12.8 12.8 12.8 32 0 44.8L556.8 384l136.533333 136.533333c12.8 12.8 12.8 32 0 44.8z"  horiz-adv-x="1024" />

    
    <glyph glyph-name="nodata" unicode="&#59497;" d="M170.440084 196.16457100000002h21.127579c5.750702-0.125015 10.251251-4.75058 10.251252-10.501282 0-5.750702-4.500549-10.501282-10.251252-10.501282h-21.127579v-21.127579c-0.125015-5.625687-4.75058-10.251251-10.501281-10.251251-2.750336 0-5.375656 1.000122-7.375901 2.875351-2.000244 1.875229-3.125382 4.500549-3.125381 7.250885v21.127579h-21.127579c-5.750702 0.125015-10.251251 4.75058-10.251252 10.501282 0 5.750702 4.500549 10.501282 10.251252 10.501282h21.127579V217.16713500000003c0.125015 5.750702 4.75058 10.251251 10.501282 10.251251 5.750702 0 10.501282-4.500549 10.501281-10.251251v-21.002564zM1549.233394 279.674765v21.127579c0 2.750336-1.125137 5.375656-3.125381 7.250885s-4.625565 3.000366-7.375901 2.875351c-5.625687 0-10.376267-4.500549-10.501282-10.251251V279.674765h-21.127579c-2.750336 0-5.375656-1.125137-7.250885-3.125382s-3.000366-4.625565-2.875351-7.3759c0-5.625687 4.625565-10.501282 10.251252-10.501282h21.127579v-21.127579c0-5.750702 4.625565-10.251251 10.501281-10.251251 5.750702 0 10.376267 4.500549 10.501282 10.251251v21.127579h21.127579c5.750702 0 10.251251 4.625565 10.251252 10.501282 0 5.625687-4.500549 10.376267-10.251252 10.501282h-21.252594z m-758.842632-344.667074h-525.939202c-5.500671 0-10.876328 2.250275-14.7518 6.125748-3.875473 3.875473-6.125748 9.251129-6.125748 14.751801 0 11.501404 9.50116 20.877549 20.877548 20.877548h94.761568c-7.3759 12.626541-11.126358 27.003296-11.126358 41.630082V624.466854c0 22.127701 8.876084 43.380295 24.502991 59.132218 15.626908 15.626908 37.004517 24.377976 59.132218 24.377976h62.632646v21.002564c0 22.127701 8.876084 43.380295 24.502991 59.132218a83.960249 83.960249 0 0 0 59.132218 24.377976h501.18618c22.127701 0 43.505311-8.751068 59.132218-24.377976 15.751923-15.626908 24.502991-36.879502 24.502991-59.132218v-606.073984c0-15.126847-4.000488-29.378586-11.126358-41.630082h115.514101c11.501404 0 20.877549-9.251129 20.877549-20.877548 0-11.501404-9.251129-20.877549-20.877549-20.877549H1016.543368v-21.002564c0-15.126847-4.000488-29.378586-11.126358-41.630081h11.251374c11.501404 0 20.877549-9.251129 20.877548-20.877549 0-11.501404-9.50116-20.877549-20.877548-20.877548h-109.888414c9.50116-16.001953 7.500916-37.004517-6.375779-50.881211-7.875961-7.875961-18.502259-12.251496-29.503601-12.251496-11.126358 0-21.752655 4.375534-29.503602 12.251496l-51.006226 50.756195z m76.384324 41.755097h66.383104c23.002808 0 41.630082 18.627274 41.630081 41.880113V625.4669759999999c0 22.627762-18.002198 40.754975-40.379929 40.754975H430.096781c-22.252716 0-40.379929-18.252228-40.379929-40.754975v-606.824075c0-23.127823 18.752289-41.880112 41.630081-41.880113h317.163717l-10.751313 10.751313c-10.626297 10.501282-14.751801 26.003174-10.876327 40.379929l-19.752412 19.752411c-61.382493-45.755585-147.768038-36.379441-197.899157 21.62764-50.13112 57.882066-47.005738 144.642657 7.000854 198.89928 54.256623 54.381638 141.267245 57.632035 199.274326 7.3759 58.007081-50.256135 67.383225-136.89171 21.252594-198.274203l19.752411-19.752411c14.376755 3.875473 29.878647-0.250031 40.37993-10.876328l69.88353-69.883531z m149.768282 104.512758h62.882677c23.002808 0.125015 41.630082 18.752289 41.630081 41.755097V728.854597c0 23.127823-18.627274 41.755097-41.630081 41.755097H577.614788c-23.002808-0.125015-41.505067-18.752289-41.630081-41.755097v-20.877549h396.798437c22.127701 0 43.505311-8.751068 59.132218-24.377976 15.751923-15.626908 24.502991-36.879502 24.502991-59.132218v-543.191308z m-736.339885 767.718716H311.332283c8.751068 0 15.876938-7.000855 15.876938-15.626908S320.083351 817.740447 311.332283 817.740447h-31.1288v-31.1288c0-8.751068-7.000855-15.876938-15.626907-15.876938-4.125504 0-8.125992 1.750214-11.126359 4.75058-3.000366 3.000366-4.625565 7.000855-4.500549 11.126358V817.615432h-31.1288c-4.250519 0-8.251007 1.625198-11.251373 4.500549-3.000366 3.000366-4.625565 7.000855-4.625565 11.126358 0 8.626053 7.12587 15.626908 15.876938 15.626908h31.1288v31.253815c0 8.751068 7.000855 15.876938 15.626908 15.876938s15.626908-7.12587 15.626907-15.876938v-31.1288zM34.673511-44.11476000000005c0 11.501404 9.50116 20.877549 20.877549 20.877548h125.515322c11.501404 0 20.877549-9.251129 20.877548-20.877548 0-11.501404-9.50116-20.877549-20.877548-20.877549h-125.515322c-5.500671 0-10.876328 2.250275-14.751801 6.125748-4.000488 3.875473-6.125748 9.251129-6.125748 14.751801z m658.830424 135.016481c40.754975 40.754975 40.754975 106.888048 0 147.768038-40.754975 40.754975-106.888048 40.754975-147.768038 0-40.754975-40.754975-40.754975-106.888048 0-147.768038 40.87999-40.754975 107.013063-40.754975 147.768038 0zM473.352061 582.586742c0 11.501404 9.376145 20.877549 20.877548 20.877548h229.77805c11.501404 0 20.877549-9.376145 20.877548-20.877548s-9.376145-20.877549-20.877548-20.877549H494.229609c-5.500671 0-10.876328 2.125259-14.7518 6.125748-3.875473 3.875473-6.125748 9.251129-6.125748 14.751801z m0-104.387743c0 11.501404 9.251129 20.877549 20.752533 20.877548h334.540838c11.501404 0 20.752533-9.251129 20.752533-20.877548 0-11.501404-9.251129-20.877549-20.752533-20.877549H494.104594c-5.500671 0-10.876328 2.250275-14.751801 6.125748-3.875473 3.875473-6.000733 9.251129-6.000732 14.751801z m0-104.512758c0 11.501404 9.376145 20.877549 20.877548 20.877549h146.267855c11.501404 0 20.877549-9.251129 20.877549-20.877549 0-11.501404-9.376145-20.877549-20.877549-20.877549h-146.267855c-5.500671 0-10.876328 2.125259-14.7518 6.125748-3.875473 3.875473-6.125748 9.251129-6.125748 14.751801z m-396.923453 125.390306c-22.377732 0-43.130265 12.001465-54.256623 31.378831-11.251373 19.377365-11.251373 43.25528 0 62.632645s31.878891 31.37883 54.256623 31.378831c34.629227 0 62.632646-28.003418 62.632646-62.632646 0.125015-34.754242-28.003418-62.757661-62.632646-62.757661z m0 31.378831c11.251373 0 21.502625 6.000733 27.128312 15.626907 5.625687 9.75119 5.625687 21.62764 0 31.378831-5.625687 9.75119-16.001953 15.626908-27.128312 15.626907-17.252106 0-31.37883-14.001709-31.37883-31.37883 0.125015-17.252106 14.126724-31.253815 31.37883-31.253815z m1295.283116 94.011476c-22.377732 0-43.130265 12.001465-54.256623 31.37883-11.251373 19.377365-11.251373 43.25528 0 62.632646s31.878891 31.37883 54.256623 31.37883c34.629227 0 62.632646-28.003418 62.632646-62.632645 0-34.754242-28.003418-62.757661-62.632646-62.757661z m0 31.253815c11.251373 0 21.502625 6.000733 27.128312 15.626908 5.625687 9.75119 5.625687 21.62764 0 31.37883-5.625687 9.75119-16.001953 15.626908-27.128312 15.626908-17.252106 0-31.37883-14.001709-31.37883-31.378831 0-17.127091 14.126724-31.253815 31.37883-31.253815z m0 0"  horiz-adv-x="1620" />

    
    <glyph glyph-name="radiochecked" unicode="&#59465;" d="M512 896c-282.76736 0-512-229.23264-512-512s229.23264-512 512-512 512 229.23264 512 512-229.23264 512-512 512zM512 256c-70.69696 0-128 57.30304-128 128s57.30304 128 128 128c70.69696 0 128-57.30304 128-128s-57.30304-128-128-128z"  horiz-adv-x="1024" />

    
    <glyph glyph-name="radiobox" unicode="&#59236;" d="M512-125.72444444444443c-68.83555555555556 0-135.50933333333333 13.425777777777778-198.42844444444444 40.04977777777778-60.757333333333335 25.71377777777778-115.25688888888888 62.46399999999999-162.01955555555557 109.22666666666667-46.76266666666667 46.76266666666667-83.5128888888889 101.26222222222222-109.22666666666667 162.01955555555557C15.815111111111094 248.4906666666667 2.27555555555557 315.1644444444445 2.27555555555557 384s13.539555555555555 135.50933333333333 40.04977777777778 198.42844444444444c25.71377777777778 60.757333333333335 62.46399999999999 115.25688888888888 109.22666666666667 162.01955555555557 46.76266666666667 46.76266666666667 101.26222222222222 83.5128888888889 162.01955555555557 109.22666666666667C376.49066666666664 880.184888888889 443.1644444444445 893.7244444444444 512 893.7244444444444s135.50933333333333-13.539555555555555 198.42844444444444-40.04977777777778c60.757333333333335-25.71377777777778 115.25688888888888-62.46399999999999 162.01955555555557-109.22666666666667 46.76266666666667-46.76266666666667 83.5128888888889-101.26222222222222 109.22666666666667-162.01955555555557C1008.2986666666666 519.5093333333334 1021.7244444444444 452.8355555555555 1021.7244444444444 384s-13.425777777777778-135.50933333333333-40.04977777777778-198.42844444444444c-25.71377777777778-60.757333333333335-62.46399999999999-115.25688888888888-109.22666666666667-162.01955555555557-46.76266666666667-46.76266666666667-101.26222222222222-83.5128888888889-162.01955555555557-109.22666666666667C647.5093333333333-112.29866666666658 580.8355555555555-125.72444444444443 512-125.72444444444443z m0 937.5288888888888c-235.86133333333333 0-427.8044444444444-191.9431111111111-427.8044444444444-427.8044444444444s191.9431111111111-427.8044444444444 427.8044444444444-427.8044444444444 427.8044444444444 191.9431111111111 427.8044444444444 427.8044444444444-191.9431111111111 427.8044444444444-427.8044444444444 427.8044444444444z"  horiz-adv-x="1024" />

    
    <glyph glyph-name="stop" unicode="&#59032;" d="M266.176 196.736h0.384c23.552 0 42.816 20.544 43.52 46.4v1.664l483.328 529.472a35.008 35.008 0 0 1 7.68 31.68 31.488 31.488 0 0 1-21.12 23.168 28.16 28.16 0 0 1-28.864-8.448l-125.44-137.472a41.6 41.6 0 0 1-3.84 2.496L403.2 815.232a114.56 114.56 0 0 1-119.232 0c-37.632-20.096-61.632-61.76-62.08-107.712V241.024l-149.12-163.328a35.072 35.072 0 0 1-6.464-35.712 29.952 29.952 0 0 1 27.648-20.224 28.608 28.608 0 0 1 21.12 9.6l151.04 165.376z m294.912 415.808L310.016 337.53599999999994V707.52c0 11.072 5.76 21.12 14.912 25.92a28.672 28.672 0 0 0 31.04 0L561.088 612.48zM329.6-64c18.752 0.192 37.12 5.568 53.504 15.68l522.88 315.136c33.28 19.072 54.08 56.768 54.08 97.92 0 41.088-20.8 78.72-54.016 97.856l-171.2 103.04c-19.392 11.584-43.648 4.736-55.424-15.744a45.056 45.056 0 0 1-4.352-32.704 43.328 43.328 0 0 1 19.328-27.328l171.136-104.32a25.664 25.664 0 0 0 12.032-22.208 25.664 25.664 0 0 0-12.032-22.144l-522.88-315.136a23.68 23.68 0 0 0-26.112 0 24.256 24.256 0 0 0-12.48 22.528c0 24.832-18.368 44.992-41.088 44.992-22.656 0-41.088-20.16-41.088-44.992 0.32-40.96 21.12-78.464 54.144-97.536 16.448-9.92 34.816-15.104 53.568-15.04z"  horiz-adv-x="1024" />

    
    <glyph glyph-name="kehu" unicode="&#58912;" d="M630.037858 411.76332c44.668339 33.503045 74.452689 89.345887 74.452689 148.906401 0 104.228853-85.621053 189.850929-189.855022 189.850929-104.230899 0-189.850929-85.622076-189.850929-189.850929 0-59.561537 29.77821-115.403357 74.450642-148.906401-119.123075-48.39522-201.02134-160.072719-201.02134-294.084898l0-63.285349c0-18.612916 14.893198-33.502022 33.507138-33.502022l573.280692 0c18.611893 0 33.502022 14.889105 33.502022 33.502022l0 63.285349C831.060221 247.96679099999994 745.440192 363.3681 630.037858 411.76332L630.037858 411.76332 630.037858 411.76332 630.037858 411.76332zM384.346133 560.669722c0 70.727855 55.837726 126.565581 126.570697 126.565581 70.725808 0 126.564557-55.837726 126.564557-126.565581 0-70.731948-55.837726-126.570697-126.564557-126.570697C440.183859 434.099025 384.346133 489.938797 384.346133 560.669722L384.346133 560.669722 384.346133 560.669722 384.346133 560.669722zM767.774873 84.17230700000005L254.052648 84.17230700000005l0 33.506115c0 141.458779 115.40438 253.136278 256.865205 253.136278 141.458779 0 256.858042-115.400287 256.858042-253.136278L767.775896 84.17230700000005 767.774873 84.17230700000005 767.774873 84.17230700000005 767.774873 84.17230700000005zM272.668635 381.97999400000003l7.443529 0c14.889105 3.723811 22.335704 14.894222 22.335704 29.783327 0 14.889105-7.446599 26.060539-22.335704 29.779234-33.503045 14.893198-55.839773 48.39522-55.839773 85.621053 0 44.671409 26.060539 78.17343 67.00916 93.066629 7.442506 22.332634 18.611893 40.944528 29.779234 55.838749 0 3.723811 3.723811 7.442506 7.446599 11.165294l-7.446599 0c-89.340771 0-160.072719-70.727855-160.072719-160.071695 0-40.949644 14.888082-78.174454 40.948621-107.953687C120.039445 378.261299 64.201719 292.64126899999997 64.201719 195.85287600000004l0-48.39522c0-18.612916 14.889105-33.502022 33.503045-33.502022l55.841819 0c0 22.335704 3.719718 44.671409 7.442506 63.285349l-33.503045 0 0 18.611893C127.486044 285.19364700000006 187.048605 359.649406 272.668635 381.97999400000003L272.668635 381.97999400000003 272.668635 381.97999400000003 272.668635 381.97999400000003zM819.889811 422.929638c26.060539 29.783327 40.949644 67.00916 40.949644 107.957781 0 85.62003-70.726831 160.071695-160.071695 160.071695l-7.446599 0c3.723811-7.446599 7.446599-11.165294 7.446599-14.889105 11.17041-18.612916 22.334681-37.22481 29.782304-55.838749 37.225833-11.17041 67.005067-48.39522 67.005067-89.343841 0-37.22481-22.336728-70.727855-55.837726-85.621053-11.167341-3.723811-22.337751-14.890128-22.337751-29.779234s11.17041-26.058492 22.337751-29.782304l7.446599 0c85.61696-22.336728 145.178497-96.78737 145.178497-182.408423l0-18.612916-33.503045 0c3.723811-22.335704 7.446599-40.948621 7.446599-63.280232l55.837726 0c18.612916 0 33.502022 14.889105 33.502022 33.502022l0 48.391127C957.625802 292.64126899999997 901.788076 378.261299 819.889811 422.929638L819.889811 422.929638 819.889811 422.929638 819.889811 422.929638zM819.889811 422.929638"  horiz-adv-x="1024" />

    
    <glyph glyph-name="videoplay" unicode="&#58880;" d="M154.48974207329763 884.5143624380466v-1001.0287248760936l858.0246203647494 500.5143624380468L154.48974207329763 884.5143624380466z"  horiz-adv-x="1024" />

    
    <glyph glyph-name="language" unicode="&#58891;" d="M983.38965 583.030357A511.807286 511.807286 0 0 1 0 383.95355800000004a511.953558 511.953558 0 0 1 511.953558-511.953558c283.037182 0 511.953558 228.916377 511.953559 511.953558 0 94.784545-40.517467 199.076798-40.517467 199.076799zM76.28108 383.95355800000004c0 54.267077 10.165935 106.705749 28.011173 154.31743 23.257319-13.091384 53.608851-15.431743 53.608852-41.687647 0-85.788789 2.998585-178.159838 85.861925-179.403154 2.413495 0 45.856412-15.504879 66.773371-66.700235 7.094214-17.918375 35.763613 0 66.700235 0 15.504879 0 0-25.085724 0-78.694575 0-53.608851 121.625538-135.887102 121.625539-135.887102-0.58509-35.105387 1.17018-64.359876 3.583675-87.032105C266.435259-46.96506499999998 76.28108 146.26083500000004 76.28108 383.95355800000004z m540.549822-422.581094c17.333285 69.186867 25.597678 108.461018 61.434427 137.715507 51.853582 42.272737 6.58226 89.957554-33.423254 84.61861-31.594848-4.753854-11.336115 36.348703-39.347288 38.762198-27.352947 1.755269-64.359876 54.193941-103.707163 72.697405-20.843823 9.507709-42.272737 35.105387-74.452675 36.348703-28.596263 1.17018-70.942136-23.257319-70.942136-4.753855 0 60.191111-6.58226 103.122074-7.75244 120.382223-1.17018 14.261563-9.507709 4.753854 29.254489 3.583675 20.843823-0.58509 10.677889 40.517467 32.179938 42.272736 20.258734 1.243316 69.69882-18.430328 82.790204-10.092798 11.336115 7.75244 85.861925-184.742098 85.861926-31.594848 0 17.845238-9.507709 49.440087 0 66.700235 39.347288 68.016687 75.69599 123.380808 72.697405 131.718337-1.828406 4.826991-40.517467 8.410666-70.357046-1.17018-10.092799-2.925449 2.998585-18.430328-11.336115-22.014003-56.022347-11.921204-104.292253 14.261563-87.032105 39.274152 17.333285 25.597678 81.693161 10.751025 87.032105 62.019516 2.998585 28.596263 5.99717 62.604607 7.75244 87.617195a434.721707 434.721707 0 0 0 340.37598-271.189113c-147.808306-107.875928-110.289424-183.571919-61.434427-226.502882 25.597678-22.672229 50.098313-57.192526 66.188282-81.620024-51.268492-135.302012-164.556501-239.594265-305.709411-274.772789z"  horiz-adv-x="1024" />

    
    <glyph glyph-name="loading" unicode="&#59131;" d="M480 800a32 32 0 0 0 64 0v-192a32 32 0 0 0-64 0V800z m250.624-60.64a32 32 0 1 0 51.776-37.632L669.568 546.4a32 32 0 0 0-51.808 37.632L730.624 739.36zM897.76 542.976a32 32 0 1 0 19.776-60.864l-182.624-59.328a32 32 0 0 0-19.776 60.864l182.624 59.328z m19.776-257.088a32 32 0 1 0-19.776-60.864l-182.624 59.328a32 32 0 0 0 19.776 60.864l182.624-59.328zM782.4 66.24000000000001a32 32 0 0 0-51.776-37.632L617.76 183.93600000000004a32 32 0 1 0 51.808 37.632L782.4 66.24000000000001zM544-32a32 32 0 0 0-64 0V160a32 32 0 0 0 64 0v-192z m-250.624 60.64a32 32 0 0 0-51.776 37.632L354.432 221.60000000000002a32 32 0 0 0 51.808-37.632L293.376 28.639999999999986zM126.24 225.024a32 32 0 1 0-19.776 60.864l182.624 59.328a32 32 0 0 0 19.776-60.864L126.24 225.024z m-19.776 257.088a32 32 0 0 0 19.776 60.864l182.624-59.328a32 32 0 1 0-19.776-60.864l-182.624 59.328zM241.6 701.76a32 32 0 1 0 51.776 37.632L406.24 584.0640000000001a32 32 0 1 0-51.808-37.632L241.6 701.76z"  horiz-adv-x="1024" />

    
    <glyph glyph-name="faq" unicode="&#59010;" d="M938.666667 704h-256v42.666667c0 23.466667-19.2 42.666667-42.666667 42.666666h-554.666667c-23.466667 0-42.666667-19.2-42.666666-42.666666v-405.333334c0-23.466667 19.2-42.666667 42.666666-42.666666h42.666667v-170.666667c0-23.466667 19.2-42.666667 42.666667-42.666667h256v-85.333333c0-12.8 10.666667-21.333333 21.333333-21.333333 4.266667 0 8.533333 2.133333 12.8 4.266666L597.333333 85.33333300000004H938.666667c23.466667 0 42.666667 19.2 42.666666 42.666667V661.333333c0 23.466667-19.2 42.666667-42.666666 42.666667z m-810.666667-42.666667v-320h-42.666667V746.666667h554.666667v-42.666667h-469.333333c-23.466667 0-42.666667-19.2-42.666667-42.666667zM938.666667 128h-341.333334c-8.533333 0-19.2-2.133333-25.6-8.533333L469.333333 42.66666699999996v42.666666c0 23.466667-19.2 42.666667-42.666666 42.666667h-256V661.333333H938.666667v-533.333333z m-381.866667 185.6c-8.533333 0-14.933333-2.133333-21.333333-8.533333-6.4-4.266667-8.533333-12.8-8.533334-21.333334s2.133333-14.933333 8.533334-21.333333 12.8-8.533333 21.333333-8.533333 14.933333 2.133333 21.333333 8.533333 8.533333 12.8 8.533334 21.333333-2.133333 14.933333-8.533334 21.333334c-6.4 6.4-12.8 8.533333-21.333333 8.533333z m-36.266667 185.6c8.533333 10.666667 21.333333 17.066667 40.533334 17.066667 14.933333 0 25.6-4.266667 34.133333-12.8 8.533333-8.533333 12.8-19.2 12.8-34.133334 0-10.666667-4.266667-21.333333-10.666667-29.866666l-6.4-8.533334c-25.6-23.466667-40.533333-40.533333-46.933333-51.2-4.266667-10.666667-8.533333-23.466667-8.533333-38.4v-6.4h44.8V341.33333300000004c0 10.666667 2.133333 19.2 6.4 27.733334 4.266667 6.4 8.533333 14.933333 17.066666 21.333333 19.2 17.066667 29.866667 27.733333 34.133334 32 10.666667 12.8 14.933333 29.866667 14.933333 49.066667 0 25.6-8.533333 44.8-23.466667 59.733333-17.066667 14.933333-38.4 21.333333-64 21.333333-29.866667 0-53.333333-8.533333-70.4-25.6s-25.6-40.533333-25.6-70.4h42.666667c-2.133333 19.2 0 34.133333 8.533333 42.666667z"  horiz-adv-x="1024" />

    
    <glyph glyph-name="xiazai" unicode="&#58881;" d="M544.142 57.04600000000005V448.285h-64.286v-391.239l-89.773 89.775-45.454-45.452L511.998-66l167.369 167.369-45.454 45.452zM767.039 608.309C751.501 735.438 643.334 834 512 834s-239.501-98.563-255.039-225.691C148.133 601.0889999999999 62 510.75 62 400.071c0-115.388 93.54-208.928 208.928-208.928h112.5v64.286h-112.5c-79.761 0-144.642 64.882-144.642 144.642 0 75.773 59.264 139.087 134.944 144.078l53.079 3.547 6.465 52.828c11.803 96.461 93.981 169.191 191.227 169.191s179.423-72.729 191.225-169.189l6.465-52.828 53.078-3.547c75.682-4.992 134.946-68.305 134.946-144.079 0-79.761-64.882-144.642-144.642-144.642h-112.5v-64.286h112.5c115.388 0 208.928 93.54 208.928 208.928 0 110.679-86.133 201.018-194.961 208.238z"  horiz-adv-x="1024" />

    
    <glyph glyph-name="mac" unicode="&#58896;" d="M876.736 175.23199999999997c-1.152-3.392-18.688-64.768-61.952-127.872-37.44-54.464-76.096-109.312-137.216-110.272-60.096-1.088-79.296 35.84-147.968 35.84-68.48 0-90.048-34.88-146.816-36.864-58.688-2.432-103.872 59.456-141.44 113.6C164.672 160.64 105.6 364.096 184.832 500.48c38.976 68.224 109.12 111.616 185.408 112.768 57.536 1.088 112.256-38.976 147.2-38.976 35.904 0 102.08 48.448 171.968 41.216 29.248-1.216 110.976-12.224 163.776-88.576-4.16-2.816-97.856-58.112-96.896-170.688 1.408-135.936 119.232-180.48 120.448-180.992z m-233.088 513.088c31.488 38.4 52.224 91.2 46.72 143.68-44.928-1.792-99.712-29.888-132.288-68.032-28.736-33.344-54.144-86.976-47.04-138.816 49.92-3.072 101.248 26.176 132.608 63.168z"  horiz-adv-x="1024" />

    
    <glyph glyph-name="win" unicode="&#58884;" d="M462.3 408.9V773.1L64.5 710.5v-301.6z m49.7-49.8v-372l447.5-70.5V359.1z m0 49.8h447.5V851.4L512 781z m-49.7-49.8H64.5v-301.6l397.8-62.6z"  horiz-adv-x="1024" />

    
    <glyph glyph-name="arrow-down" unicode="&#58901;" d="M511.872 219.20000000000005a32 32 0 0 0-23.232 9.984l-251.264 265.6a32 32 0 0 0 46.528 43.968l228.032-241.088 228.224 241.088a32.064 32.064 0 0 0 45.248 1.28c12.8-12.16 13.376-32.448 1.28-45.248l-251.52-265.6a32 32 0 0 0-23.296-9.984z"  horiz-adv-x="1024" />

    
    <glyph glyph-name="arrow-up" unicode="&#58899;" d="M512.128 548.8c0.003 0 0.006 0 0.008 0 9.137 0 17.37900001-3.829 23.20999999-9.97l251.27700001-265.614c5.415-5.72 8.743-13.464 8.744-21.984 0-17.678-14.33-32.008-32.008-32.008-9.15700001 0-17.416 3.84499999-23.25 10.00900001l-228.04500001 241.10299999-228.22399999-241.088c-5.855-6.165-14.113-10.001-23.266-10.001-8.516 0-16.256 3.32-21.998 8.736-12.784 12.145-13.36 32.434-1.264 45.233l251.52 265.6c5.844 6.155 14.086 9.984 23.223 9.984 0.025 0 0.05100001 0 0.076 0z"  horiz-adv-x="1024" />

    
    <glyph glyph-name="arrow-right" unicode="&#58885;" d="M676.8 383.87199999999996a32 32 0 0 0-9.984-23.232l-265.6-251.264a32 32 0 0 0-43.968 46.528l241.088 228.03200001-241.088 228.22399999a32.064 32.064 0 0 0-1.28 45.248c12.16 12.8 32.448 13.376 45.248 1.28l265.6-251.52a32 32 0 0 0 9.984-23.296z"  horiz-adv-x="1024" />

    
    <glyph glyph-name="arrow-left" unicode="&#58886;" d="M347.2 384.128a32 32 0 0 0 9.984 23.232l265.6 251.264a32 32 0 0 0 43.968-46.528l-241.088-228.03200001 241.088-228.22399999a32.064 32.064 0 0 0 1.28-45.248c-12.16-12.8-32.448-13.376-45.248-1.28l-265.6 251.52a32 32 0 0 0-9.984 23.296z"  horiz-adv-x="1024" />

    
    <glyph glyph-name="add-blod" unicode="&#58882;" d="M960 448l-384 0 0 384-128 0 0-384-384 0 0-128 384 0 0-384 128 0 0 384 384 0z"  horiz-adv-x="1024" />

    
    <glyph glyph-name="reduce-blod" unicode="&#59137;" d="M100.4 467.67h825.9v-170.76H100.4v170.76z"  horiz-adv-x="1024" />

    
    <glyph glyph-name="close" unicode="&#58960;" d="M842.67034667 101.52273706999995l0.02401386 0.02401386L228.804512 715.39512c-6.17367467 6.17804053-14.7050464 9.9994752-24.12928747 9.9994752-18.83974933 0-34.11238933-15.27264-34.11238933-34.11238933 0-9.4231488 3.82143467-17.9545216 9.998384-24.12819627L793.719744 54.038054399999965c6.22825067-6.69651627 15.1110944-10.89016107 24.97740373-10.89016107 18.83974933 0 34.11238933 15.27264 34.11238934 34.11238934C852.80953707 86.75438186999997 848.92915947 95.33814719999998 842.67034667 101.52273706999995zM794.4357856 715.2554048l-0.02401387 0.02401387L180.5634016 101.38957013000004c-6.17804053-6.17367467-9.9994752-14.7050464-9.9994752-24.12928746 0-18.83974933 15.27264-34.11238933 34.11238933-34.11238934 9.4231488 0 17.9545216 3.82143467 24.12819627 9.998384l613.1170464 613.1585248c6.69651627 6.22825067 10.89016107 15.1110944 10.89016107 24.97740374 0 18.83974933-15.27264 34.11238933-34.11238934 34.11238933C809.2041408 725.3945952 800.6192832 721.51421867 794.4357856 715.2554048z"  horiz-adv-x="1024" />

    
    <glyph glyph-name="add" unicode="&#58921;" d="M863.328262 414.659105l-317.344013-0.099772L545.984249 733.183174c0 17.664722-14.336138 32.00086-32.00086 32.00086s-31.99914-14.336138-31.99914-32.00086l0-318.400215-322.368714 0.17718c-0.032684 0-0.063647 0-0.096331 0-17.632039 0-31.935493-14.239806-32.00086-31.904529-0.096331-17.664722 14.208843-32.031824 31.871845-32.095471l322.59234-0.17718 0-319.167424c0-17.695686 14.336138-32.00086 31.99914-32.00086s32.00086 14.303454 32.00086 32.00086L545.982529 350.55933300000004l317.087703 0.099772c0.063647 0 0.096331 0 0.127295 0 17.632039 0 31.935493 14.239806 32.00086 31.904529S880.960301 414.595458 863.328262 414.659105z"  horiz-adv-x="1024" />

    
    <glyph glyph-name="reduce" unicode="&#59399;" d="M864 352H160c-17.7 0-32 14.3-32 32s14.3 32 32 32h704c17.7 0 32-14.3 32-32s-14.3-32-32-32z"  horiz-adv-x="1024" />

    


  </font>
</defs>
</svg>
